<svg width="18" height="19" viewBox="0 0 18 19" fill="none" xmlns="http://www.w3.org/2000/svg">
<path d="M12.75 4.74992H16.025C16.2874 4.74992 16.5 4.96257 16.5 5.22488C16.5 5.48719 16.2874 5.69984 16.025 5.69984H15V16.6249C15 16.8349 14.921 17.0362 14.7803 17.1847C14.6397 17.3332 14.4489 17.4166 14.25 17.4166H3.75C3.55109 17.4166 3.36032 17.3332 3.21967 17.1847C3.07902 17.0362 3 16.8349 3 16.6249V5.69984H1.97496C1.71265 5.69984 1.5 5.48719 1.5 5.22488C1.5 4.96257 1.71265 4.74992 1.97496 4.74992H5.25V2.37492C5.25 2.16496 5.32902 1.96359 5.46967 1.81513C5.61032 1.66666 5.80109 1.58325 6 1.58325H12C12.1989 1.58325 12.3897 1.66666 12.5303 1.81513C12.671 1.96359 12.75 2.16496 12.75 2.37492V4.74992ZM14 5.69984H4V16.3311H14V5.69984ZM6.30015 2.54476V4.74984H11.7001V2.54476H6.30015Z" fill="#222222"/>
</svg>
