<svg width="8" height="7" viewBox="0 0 8 7" fill="none" xmlns="http://www.w3.org/2000/svg">
<path d="M0.646447 0.146447C0.841709 -0.0488155 1.15829 -0.0488155 1.35355 0.146447L4 2.79289L6.64645 0.146447C6.84171 -0.0488155 7.15829 -0.0488155 7.35355 0.146447C7.54882 0.341709 7.54882 0.658291 7.35355 0.853553L4.70711 3.5L7.35355 6.14645C7.54882 6.34171 7.54882 6.65829 7.35355 6.85355C7.15829 7.04882 6.84171 7.04882 6.64645 6.85355L4 4.20711L1.35355 6.85355C1.15829 7.04882 0.841709 7.04882 0.646447 6.85355C0.451184 6.65829 0.451184 6.34171 0.646447 6.14645L3.29289 3.5L0.646447 0.853553C0.451184 0.658291 0.451184 0.341709 0.646447 0.146447Z" fill="#828282"/>
</svg>
