<svg width="18" height="18" viewBox="0 0 18 18" fill="none" xmlns="http://www.w3.org/2000/svg">
<path d="M0.666504 9.16658H17.3332V16.6666C17.3332 16.8876 17.2454 17.0996 17.0891 17.2558C16.9328 17.4121 16.7209 17.4999 16.4998 17.4999H1.49984C1.27882 17.4999 1.06686 17.4121 0.910582 17.2558C0.754301 17.0996 0.666504 16.8876 0.666504 16.6666V9.16658ZM13.1665 2.49992H16.4998C16.7209 2.49992 16.9328 2.58772 17.0891 2.744C17.2454 2.90028 17.3332 3.11224 17.3332 3.33325V7.49992H0.666504V3.33325C0.666504 3.11224 0.754301 2.90028 0.910582 2.744C1.06686 2.58772 1.27882 2.49992 1.49984 2.49992H4.83317V0.833252H6.49984V2.49992H11.4998V0.833252H13.1665V2.49992Z" fill="#C4C4C4"/>
</svg>
