<svg width="18" height="16" viewBox="0 0 18 16" fill="none" xmlns="http://www.w3.org/2000/svg">
<path d="M7.05 10H2.25C1.85218 10 1.47065 9.84196 1.18934 9.56066C0.908036 9.27936 0.750001 8.89782 0.750001 8.5V6.922C0.749799 6.72598 0.788019 6.53182 0.862501 6.3505L3.1845 0.715C3.24096 0.577565 3.33697 0.459996 3.46035 0.377209C3.58373 0.294422 3.72892 0.250147 3.8775 0.25H16.5C16.6989 0.25 16.8897 0.329018 17.0303 0.46967C17.171 0.610322 17.25 0.801088 17.25 1V8.5C17.25 8.69891 17.171 8.88968 17.0303 9.03033C16.8897 9.17098 16.6989 9.25 16.5 9.25H13.8885C13.7684 9.24997 13.6501 9.27877 13.5435 9.33397C13.4368 9.38918 13.345 9.46918 13.2758 9.56725L9.186 15.3617C9.1343 15.435 9.05806 15.4873 8.9711 15.5092C8.88414 15.5311 8.79222 15.5211 8.712 15.481L7.3515 14.8C6.96862 14.6086 6.66275 14.292 6.4847 13.9028C6.30665 13.5135 6.26715 13.0751 6.37275 12.6603L7.05 10ZM12.75 8.059V1.75H4.38L2.25 6.922V8.5H7.05C7.27845 8.50003 7.50388 8.55225 7.70908 8.65266C7.91428 8.75307 8.09383 8.89902 8.23404 9.07938C8.37425 9.25975 8.47142 9.46976 8.51811 9.69338C8.56481 9.91701 8.55981 10.1483 8.5035 10.3698L7.82625 13.0308C7.80505 13.1138 7.81292 13.2015 7.84853 13.2794C7.88415 13.3573 7.94536 13.4207 8.022 13.459L8.51775 13.7065L12.0502 8.7025C12.2377 8.437 12.4778 8.2195 12.75 8.059ZM14.25 7.75H15.75V1.75H14.25V7.75Z" fill="black"/>
</svg>
