<svg width="20" height="20" viewBox="0 0 20 20" fill="none" xmlns="http://www.w3.org/2000/svg">
<path d="M1 3H5M5 3C5 4.10457 5.89543 5 7 5C8.10457 5 9 4.10457 9 3M5 3C5 1.89543 5.89543 1 7 1C8.10457 1 9 1.89543 9 3M19 3H9M1 10H13M13 10C13 11.1046 13.8954 12 15 12C16.1046 12 17 11.1046 17 10M13 10C13 8.89543 13.8954 8 15 8C16.1046 8 17 8.89543 17 10M19 10H17M1 17H3M3 17C3 18.1046 3.89543 19 5 19C6.10457 19 7 18.1046 7 17M3 17C3 15.8954 3.89543 15 5 15C6.10457 15 7 15.8954 7 17M19 17H7" stroke="#828282" stroke-width="2" stroke-linecap="round" stroke-linejoin="round"/>
</svg>
