<svg width="32" height="24" viewBox="0 0 32 24" fill="none" xmlns="http://www.w3.org/2000/svg">
<path d="M30 20C30 21.1046 29.1046 22 28 22H4C2.89543 22 2 21.1046 2 20V8C2 6.89543 2.89543 6 4 6H6.34315C7.93444 6 9.46057 5.36786 10.5858 4.24264L12.2426 2.58579C12.6177 2.21071 13.1264 2 13.6569 2H18.3431C18.8736 2 19.3823 2.21071 19.7574 2.58579L21.4142 4.24264C22.5394 5.36786 24.0656 6 25.6569 6H28C29.1046 6 30 6.89543 30 8V20ZM4 4C1.79086 4 0 5.79086 0 8V20C0 22.2091 1.79086 24 4 24H28C30.2091 24 32 22.2091 32 20V8C32 5.79086 30.2091 4 28 4H25.6569C24.596 4 23.5786 3.57857 22.8284 2.82843L21.1716 1.17157C20.4214 0.421428 19.404 0 18.3431 0H13.6569C12.596 0 11.5786 0.421426 10.8284 1.17157L9.17157 2.82843C8.42143 3.57857 7.40401 4 6.34315 4H4Z" fill="#C4C4C4"/>
<path d="M16 18C13.2386 18 11 15.7614 11 13C11 10.2386 13.2386 8 16 8C18.7614 8 21 10.2386 21 13C21 15.7614 18.7614 18 16 18ZM16 20C19.866 20 23 16.866 23 13C23 9.13401 19.866 6 16 6C12.134 6 9 9.13401 9 13C9 16.866 12.134 20 16 20Z" fill="#C4C4C4"/>
<path d="M6 9C6 9.55229 5.55228 10 5 10C4.44772 10 4 9.55229 4 9C4 8.44771 4.44772 8 5 8C5.55228 8 6 8.44771 6 9Z" fill="#C4C4C4"/>
</svg>
