<svg width="22" height="20" viewBox="0 0 22 20" fill="none" xmlns="http://www.w3.org/2000/svg">
<path d="M1 8H4V20H1C0.734784 20 0.48043 19.8946 0.292893 19.7071C0.105357 19.5196 0 19.2652 0 19V9C0 8.73478 0.105357 8.48043 0.292893 8.29289C0.48043 8.10536 0.734784 8 1 8ZM6.293 6.707L12.693 0.307001C12.7781 0.221695 12.8911 0.169968 13.0112 0.161332C13.1314 0.152697 13.2506 0.187735 13.347 0.260001L14.2 0.900001C14.4369 1.07785 14.6158 1.32185 14.7143 1.60126C14.8127 1.88066 14.8262 2.18295 14.753 2.47L13.6 7H20C20.5304 7 21.0391 7.21071 21.4142 7.58579C21.7893 7.96086 22 8.46957 22 9V11.104C22.0003 11.3654 21.9493 11.6242 21.85 11.866L18.755 19.381C18.6795 19.5642 18.5513 19.7209 18.3866 19.8311C18.2219 19.9413 18.0282 20.0001 17.83 20H7C6.73478 20 6.48043 19.8946 6.29289 19.7071C6.10536 19.5196 6 19.2652 6 19V7.414C6.00006 7.14881 6.10545 6.89449 6.293 6.707Z" fill="black"/>
</svg>
