<svg width="18" height="16" viewBox="0 0 18 16" fill="none" xmlns="http://www.w3.org/2000/svg">
<path d="M10.95 6.00005H15.75C16.1478 6.00005 16.5294 6.15809 16.8107 6.43939C17.092 6.72069 17.25 7.10223 17.25 7.50005V9.07805C17.2502 9.27407 17.212 9.46823 17.1375 9.64955L14.8163 15.2858C14.7596 15.4232 14.6635 15.5407 14.5399 15.6234C14.4164 15.706 14.2711 15.7501 14.1225 15.7501H1.5C1.30109 15.7501 1.11032 15.671 0.96967 15.5304C0.829018 15.3897 0.75 15.199 0.75 15.0001V7.50005C0.75 7.30114 0.829018 7.11037 0.96967 6.96972C1.11032 6.82907 1.30109 6.75005 1.5 6.75005H4.1115C4.23157 6.75008 4.3499 6.72128 4.45653 6.66608C4.56315 6.61087 4.65497 6.53087 4.72425 6.4328L8.814 0.63755C8.8657 0.564284 8.94194 0.51197 9.0289 0.490093C9.11586 0.468215 9.20779 0.478222 9.288 0.5183L10.6485 1.19855C11.0314 1.38992 11.3373 1.70654 11.5153 2.09579C11.6933 2.48504 11.7329 2.92349 11.6273 3.3383L10.95 6.00005ZM5.25 7.94105V14.2501H13.62L15.75 9.07805V7.50005H10.95C10.7216 7.50002 10.4961 7.4478 10.2909 7.34739C10.0857 7.24698 9.90617 7.10103 9.76596 6.92066C9.62575 6.7403 9.52859 6.53029 9.48189 6.30667C9.43519 6.08304 9.44019 5.8517 9.4965 5.6303L10.1738 2.9693C10.1949 2.8863 10.1871 2.79854 10.1515 2.72062C10.1159 2.64271 10.0546 2.57934 9.978 2.54105L9.48225 2.29355L5.94975 7.29755C5.76225 7.56305 5.52225 7.78055 5.25 7.94105ZM3.75 8.25005H2.25V14.2501H3.75V8.25005Z" fill="#828282"/>
</svg>
