<svg width="74" height="55" viewBox="0 0 74 55" fill="none" xmlns="http://www.w3.org/2000/svg">
<path d="M15.5214 25.989C15.8739 25.989 16.2231 25.9219 16.5488 25.7913C16.8746 25.6607 17.1705 25.4693 17.4198 25.2279C17.6692 24.9866 17.867 24.7001 18.0019 24.3848C18.1368 24.0695 18.2063 23.7316 18.2063 23.3903C18.2063 18.5653 20.1863 13.938 23.7108 10.5262C27.2353 7.11445 32.0156 5.19775 37 5.19775C41.9844 5.19775 46.7648 7.11445 50.2891 10.5262C53.8138 13.938 55.7937 18.5653 55.7937 23.3903C55.8007 24.075 56.0867 24.7294 56.5895 25.2112C57.0921 25.693 57.771 25.9633 58.4786 25.9633C59.186 25.9633 59.8649 25.693 60.3675 25.2112C60.8703 24.7294 61.1563 24.075 61.1633 23.3903C61.1633 20.3186 60.5382 17.277 59.324 14.4392C58.1096 11.6014 56.3298 9.02283 54.0861 6.85084C51.8421 4.67886 49.1784 2.95594 46.2469 1.78048C43.3151 0.605006 40.1733 0 37 0C33.8267 0 30.6849 0.605006 27.7531 1.78048C24.8215 2.95594 22.1578 4.67886 19.914 6.85084C17.6702 9.02283 15.8904 11.6014 14.676 14.4392C13.4617 17.277 12.8367 20.3186 12.8367 23.3903C12.8367 24.0795 13.1196 24.7405 13.623 25.2279C14.1265 25.7152 14.8094 25.989 15.5214 25.989Z" fill="#1C2E20"/>
<path d="M71.3455 31.1867H47.7426C49.4902 28.9408 50.434 26.2036 50.431 23.3902C50.431 19.9438 49.0186 16.6386 46.5046 14.2016C43.9904 11.7647 40.5806 10.3956 37.0252 10.3956C33.47 10.3956 30.0602 11.7647 27.546 14.2016C25.0319 16.6386 23.6196 19.9438 23.6196 23.3902C23.6196 24.0795 23.902 24.7406 24.4049 25.228C24.9077 25.7154 25.5897 25.9892 26.3008 25.9892C27.012 25.9892 27.694 25.7154 28.1967 25.228C28.6996 24.7406 28.982 24.0795 28.982 23.3902C28.982 21.8482 29.4537 20.3407 30.3375 19.0585C31.2213 17.7763 32.4775 16.777 33.9473 16.1868C35.417 15.5966 37.0343 15.4422 38.5945 15.743C40.1547 16.0438 41.5881 16.7864 42.7128 17.8767C43.8379 18.9671 44.6039 20.3564 44.9144 21.8688C45.2246 23.3812 45.0654 24.9489 44.4567 26.3735C43.8478 27.7982 42.817 29.0161 41.4942 29.8728C40.1713 30.7296 38.6162 31.1867 37.0254 31.1867H2.70802C2.35368 31.1834 2.00215 31.248 1.67376 31.3772C1.34536 31.5061 1.04663 31.6971 0.79481 31.9386C0.542993 32.1805 0.343088 32.4679 0.206665 32.785C0.0702406 33.1021 0 33.4422 0 33.7857C0 34.129 0.0702406 34.4691 0.206665 34.7862C0.343088 35.1033 0.542993 35.3907 0.79481 35.6326C1.04663 35.8741 1.34536 36.0651 1.67376 36.194C2.00215 36.3232 2.35368 36.3878 2.70802 36.3845H71.3455C72.0519 36.3777 72.727 36.1009 73.224 35.6141C73.7211 35.1277 74 34.4704 74 33.7857C74 33.1008 73.7211 32.4435 73.224 31.9571C72.727 31.4703 72.0519 31.1935 71.3455 31.1867Z" fill="#1C2E20"/>
<path d="M17.8701 52.8068H13.0515L12.1016 55H10.2567L14.5935 45.5231H16.3557L20.7062 55H18.8339L17.8701 52.8068ZM17.2781 51.4258L15.4608 47.2831L13.6573 51.4258H17.2781Z" fill="#1C2E20"/>
<path d="M21.9043 47.7705H23.6253V55H21.9043V47.7705ZM22.7717 46.5791C22.4596 46.5791 22.198 46.4843 21.9869 46.2948C21.7758 46.0962 21.6703 45.8525 21.6703 45.5637C21.6703 45.2749 21.7758 45.0357 21.9869 44.8462C22.198 44.6476 22.4596 44.5483 22.7717 44.5483C23.0837 44.5483 23.3453 44.6431 23.5564 44.8326C23.7675 45.0131 23.8731 45.2433 23.8731 45.5231C23.8731 45.8209 23.7675 46.0736 23.5564 46.2812C23.3545 46.4798 23.0929 46.5791 22.7717 46.5791Z" fill="#1C2E20"/>
<path d="M27.66 48.8265C28.1556 48.0683 29.0275 47.6892 30.2758 47.6892V49.3003C30.1289 49.2732 29.9958 49.2597 29.8765 49.2597C29.2065 49.2597 28.6834 49.4537 28.307 49.8418C27.9307 50.2209 27.7426 50.7715 27.7426 51.4935V55H26.0216V47.7705H27.66V48.8265Z" fill="#1C2E20"/>
<path d="M38.8 50.072C39.3323 50.2435 39.7545 50.5323 40.0666 50.9385C40.3787 51.3356 40.5347 51.832 40.5347 52.4277C40.5347 53.249 40.2134 53.8853 39.571 54.3366C38.9285 54.7789 37.9923 55 36.7624 55H31.9713V45.5231H36.4871C37.6252 45.5231 38.5017 45.7442 39.1166 46.1865C39.7316 46.6197 40.0391 47.2199 40.0391 47.9871C40.0391 48.4564 39.9289 48.8716 39.7086 49.2326C39.4884 49.5936 39.1855 49.8734 38.8 50.072ZM33.7611 46.904V49.5169H36.2943C36.9184 49.5169 37.3957 49.4086 37.7261 49.192C38.0657 48.9664 38.2355 48.6414 38.2355 48.2172C38.2355 47.784 38.0657 47.4591 37.7261 47.2425C37.3957 47.0168 36.9184 46.904 36.2943 46.904H33.7611ZM36.6523 53.6191C38.0382 53.6191 38.7311 53.1633 38.7311 52.2517C38.7311 51.3401 38.0382 50.8843 36.6523 50.8843H33.7611V53.6191H36.6523Z" fill="#1C2E20"/>
<path d="M51.1458 45.5231V55H49.6727L44.3585 48.5828V55H42.5825V45.5231H44.0556L49.3698 51.9403V45.5231H51.1458Z" fill="#1C2E20"/>
<path d="M60.6945 50.072C61.2269 50.2435 61.6491 50.5323 61.9611 50.9385C62.2732 51.3356 62.4292 51.832 62.4292 52.4277C62.4292 53.249 62.108 53.8853 61.4655 54.3366C60.823 54.7789 59.8868 55 58.6569 55H53.8659V45.5231H58.3816C59.5197 45.5231 60.3962 45.7442 61.0112 46.1865C61.6261 46.6197 61.9336 47.2199 61.9336 47.9871C61.9336 48.4564 61.8234 48.8716 61.6032 49.2326C61.3829 49.5936 61.08 49.8734 60.6945 50.072ZM55.6556 46.904V49.5169H58.1888C58.813 49.5169 59.2902 49.4086 59.6207 49.192C59.9603 48.9664 60.1301 48.6414 60.1301 48.2172C60.1301 47.784 59.9603 47.4591 59.6207 47.2425C59.2902 47.0168 58.813 46.904 58.1888 46.904H55.6556ZM58.5468 53.6191C59.9327 53.6191 60.6257 53.1633 60.6257 52.2517C60.6257 51.3401 59.9327 50.8843 58.5468 50.8843H55.6556V53.6191H58.5468Z" fill="#1C2E20"/>
</svg>
