<svg width="88" height="65" viewBox="0 0 88 65" fill="none" xmlns="http://www.w3.org/2000/svg">
<path d="M18.4578 30.7143C18.8771 30.7143 19.2923 30.6349 19.6797 30.4806C20.067 30.3263 20.419 30.1 20.7155 29.8148C21.012 29.5297 21.2472 29.1911 21.4076 28.8184C21.5681 28.4458 21.6507 28.0464 21.6507 27.643C21.6507 21.9408 24.0053 16.4722 28.1967 12.4401C32.3879 8.40799 38.0727 6.14279 44 6.14279C49.9274 6.14279 55.6121 8.40799 59.8033 12.4401C63.9948 16.4722 66.3493 21.9408 66.3493 27.643C66.3576 28.4523 66.6977 29.2257 67.2957 29.7951C67.8933 30.3645 68.7007 30.6839 69.5422 30.6839C70.3833 30.6839 71.1907 30.3645 71.7883 29.7951C72.3863 29.2257 72.7264 28.4523 72.7347 27.643C72.7347 24.0129 71.9914 20.4183 70.5475 17.0645C69.1033 13.7107 66.9868 10.6633 64.3186 8.09645C61.6501 5.52956 58.4824 3.49339 54.9963 2.1042C51.5099 0.715007 47.7736 0 44 0C40.2264 0 36.4901 0.715007 33.0037 2.1042C29.5175 3.49339 26.3498 5.52956 23.6815 8.09645C21.0132 10.6633 18.8967 13.7107 17.4526 17.0645C16.0086 20.4183 15.2653 24.0129 15.2653 27.643C15.2653 28.4576 15.6017 29.2388 16.2004 29.8147C16.7991 30.3907 17.6111 30.7143 18.4578 30.7143Z" fill="white"/>
<path d="M84.8434 36.857H56.775C58.8532 34.2028 59.9756 30.9678 59.9721 27.643C59.9721 23.57 58.2924 19.6638 55.3028 16.7838C52.3129 13.9037 48.258 12.2857 44.0299 12.2857C39.8022 12.2857 35.7473 13.9037 32.7574 16.7838C29.7677 19.6638 28.0881 23.57 28.0881 27.643C28.0881 28.4576 28.424 29.2389 29.022 29.8149C29.62 30.3909 30.431 30.7146 31.2766 30.7146C32.1224 30.7146 32.9334 30.3909 33.5312 29.8149C34.1293 29.2389 34.4651 28.4576 34.4651 27.643C34.4651 25.8206 35.026 24.039 36.077 22.5237C37.1281 21.0084 38.6219 19.8273 40.3697 19.1298C42.1175 18.4324 44.0408 18.2499 45.8962 18.6054C47.7516 18.9609 49.4561 19.8384 50.7937 21.1271C52.1315 22.4157 53.0425 24.0575 53.4117 25.845C53.7807 27.6324 53.5913 29.4851 52.8674 31.1687C52.1433 32.8524 50.9175 34.2917 49.3444 35.3042C47.7713 36.3167 45.922 36.857 44.0303 36.857H3.22035C2.79897 36.8531 2.38093 36.9294 1.99042 37.0821C1.59989 37.2345 1.24464 37.4602 0.945179 37.7457C0.645721 38.0314 0.407997 38.3712 0.245764 38.7459C0.0835293 39.1206 0 39.5226 0 39.9286C0 40.3343 0.0835293 40.7363 0.245764 41.111C0.407997 41.4857 0.645721 41.8254 0.945179 42.1112C1.24464 42.3967 1.59989 42.6224 1.99042 42.7748C2.38093 42.9275 2.79897 43.0038 3.22035 42.9998H84.8434C85.6834 42.9919 86.4861 42.6647 87.0772 42.0894C87.6683 41.5145 88 40.7378 88 39.9286C88 39.1191 87.6683 38.3424 87.0772 37.7674C86.4861 37.1922 85.6834 36.865 84.8434 36.857Z" fill="white"/>
<path d="M21.251 62.408H15.5207L14.3911 65H12.1972L17.3544 53.8H19.45L24.6236 65H22.397L21.251 62.408ZM20.547 60.776L18.3859 55.88L16.2411 60.776H20.547Z" fill="white"/>
<path d="M26.0484 56.456H28.0949V65H26.0484V56.456ZM27.0798 55.048C26.7087 55.048 26.3977 54.936 26.1466 54.712C25.8956 54.4773 25.7701 54.1893 25.7701 53.848C25.7701 53.5067 25.8956 53.224 26.1466 53C26.3977 52.7653 26.7087 52.648 27.0798 52.648C27.4509 52.648 27.762 52.76 28.013 52.984C28.2641 53.1973 28.3896 53.4693 28.3896 53.8C28.3896 54.152 28.2641 54.4507 28.013 54.696C27.7729 54.9307 27.4618 55.048 27.0798 55.048Z" fill="white"/>
<path d="M32.8929 57.704C33.4823 56.808 34.5192 56.36 36.0036 56.36V58.264C35.829 58.232 35.6707 58.216 35.5289 58.216C34.7321 58.216 34.1099 58.4453 33.6624 58.904C33.2149 59.352 32.9912 60.0027 32.9912 60.856V65H30.9447V56.456H32.8929V57.704Z" fill="white"/>
<path d="M46.1405 59.176C46.7736 59.3787 47.2757 59.72 47.6468 60.2C48.0179 60.6693 48.2034 61.256 48.2034 61.96C48.2034 62.9307 47.8214 63.6827 47.0574 64.216C46.2933 64.7387 45.18 65 43.7175 65H38.02V53.8H43.39C44.7434 53.8 45.7858 54.0613 46.5171 54.584C47.2484 55.096 47.614 55.8053 47.614 56.712C47.614 57.2667 47.483 57.7573 47.2211 58.184C46.9591 58.6107 46.5989 58.9413 46.1405 59.176ZM40.1483 55.432V58.52H43.1608C43.903 58.52 44.4706 58.392 44.8635 58.136C45.2673 57.8693 45.4693 57.4853 45.4693 56.984C45.4693 56.472 45.2673 56.088 44.8635 55.832C44.4706 55.5653 43.903 55.432 43.1608 55.432H40.1483ZM43.5865 63.368C45.2346 63.368 46.0587 62.8293 46.0587 61.752C46.0587 60.6747 45.2346 60.136 43.5865 60.136H40.1483V63.368H43.5865Z" fill="white"/>
<path d="M60.8221 53.8V65H59.0703L52.7506 57.416V65H50.6386V53.8H52.3904L58.7101 61.384V53.8H60.8221Z" fill="white"/>
<path d="M72.1773 59.176C72.8103 59.3787 73.3124 59.72 73.6835 60.2C74.0546 60.6693 74.2402 61.256 74.2402 61.96C74.2402 62.9307 73.8581 63.6827 73.0941 64.216C72.3301 64.7387 71.2168 65 69.7542 65H64.0567V53.8H69.4268C70.7802 53.8 71.8225 54.0613 72.5538 54.584C73.2851 55.096 73.6508 55.8053 73.6508 56.712C73.6508 57.2667 73.5198 57.7573 73.2578 58.184C72.9959 58.6107 72.6357 58.9413 72.1773 59.176ZM66.1851 55.432V58.52H69.1975C69.9398 58.52 70.5073 58.392 70.9002 58.136C71.3041 57.8693 71.506 57.4853 71.506 56.984C71.506 56.472 71.3041 56.088 70.9002 55.832C70.5073 55.5653 69.9398 55.432 69.1975 55.432H66.1851ZM69.6232 63.368C71.2713 63.368 72.0954 62.8293 72.0954 61.752C72.0954 60.6747 71.2713 60.136 69.6232 60.136H66.1851V63.368H69.6232Z" fill="white"/>
</svg>
