<svg width="34" height="20" viewBox="0 0 34 20" fill="none" xmlns="http://www.w3.org/2000/svg">
<path d="M0 1C0 0.447715 0.447715 0 1 0H32.75C33.3023 0 33.75 0.447715 33.75 1V1.5C33.75 2.05228 33.3023 2.5 32.75 2.5H1C0.447716 2.5 0 2.05228 0 1.5V1ZM11.25 9.75C11.25 9.19771 11.6977 8.75 12.25 8.75H32.75C33.3023 8.75 33.75 9.19771 33.75 9.75V10.25C33.75 10.8023 33.3023 11.25 32.75 11.25H12.25C11.6977 11.25 11.25 10.8023 11.25 10.25V9.75ZM0 18.5C0 17.9477 0.447715 17.5 1 17.5H32.75C33.3023 17.5 33.75 17.9477 33.75 18.5V19C33.75 19.5523 33.3023 20 32.75 20H1C0.447716 20 0 19.5523 0 19V18.5Z" fill="white"/>
</svg>
