<svg width="34" height="20" viewBox="0 0 34 20" fill="none" xmlns="http://www.w3.org/2000/svg">
<path d="M0.25 1C0.25 0.447715 0.697715 0 1.25 0H33C33.5523 0 34 0.447715 34 1V1.5C34 2.05228 33.5523 2.5 33 2.5H1.25C0.697716 2.5 0.25 2.05228 0.25 1.5V1ZM11.5 9.75C11.5 9.19771 11.9477 8.75 12.5 8.75H33C33.5523 8.75 34 9.19771 34 9.75V10.25C34 10.8023 33.5523 11.25 33 11.25H12.5C11.9477 11.25 11.5 10.8023 11.5 10.25V9.75ZM0.25 18.5C0.25 17.9477 0.697715 17.5 1.25 17.5H33C33.5523 17.5 34 17.9477 34 18.5V19C34 19.5523 33.5523 20 33 20H1.25C0.697716 20 0.25 19.5523 0.25 19V18.5Z" fill="#363636"/>
</svg>
