<svg width="34" height="20" viewBox="0 0 34 20" fill="none" xmlns="http://www.w3.org/2000/svg">
<path d="M33.75 1C33.75 0.447715 33.3023 0 32.75 0H1C0.447716 0 0 0.447715 0 1V1.5C0 2.05228 0.447716 2.5 1 2.5H32.75C33.3023 2.5 33.75 2.05228 33.75 1.5V1ZM22.5 9.75C22.5 9.19771 22.0523 8.75 21.5 8.75H1C0.447716 8.75 0 9.19771 0 9.75V10.25C0 10.8023 0.447716 11.25 1 11.25H21.5C22.0523 11.25 22.5 10.8023 22.5 10.25V9.75ZM33.75 18.5C33.75 17.9477 33.3023 17.5 32.75 17.5H1C0.447716 17.5 0 17.9477 0 18.5V19C0 19.5523 0.447716 20 1 20H32.75C33.3023 20 33.75 19.5523 33.75 19V18.5Z" fill="white"/>
</svg>
