<svg width="21" height="18" viewBox="0 0 21 18" fill="none" xmlns="http://www.w3.org/2000/svg">
<path d="M20.9105 8V17C20.9105 17.2652 20.8054 17.5196 20.6183 17.7071C20.4312 17.8946 20.1774 18 19.9128 18H1.95517C1.69057 18 1.43682 17.8946 1.24972 17.7071C1.06263 17.5196 0.95752 17.2652 0.95752 17V8H20.9105ZM20.9105 4H0.95752V1C0.95752 0.734784 1.06263 0.48043 1.24972 0.292893C1.43682 0.105357 1.69057 0 1.95517 0H19.9128C20.1774 0 20.4312 0.105357 20.6183 0.292893C20.8054 0.48043 20.9105 0.734784 20.9105 1V4Z" fill="#C4C4C4"/>
</svg>
