<svg width="20" height="20" viewBox="0 0 20 20" fill="none" xmlns="http://www.w3.org/2000/svg">
<path d="M20 10C20 15.5228 15.5228 20 10 20C4.47715 20 0 15.5228 0 10C0 4.47715 4.47715 0 10 0C15.5228 0 20 4.47715 20 10ZM10.3584 7.38249C9.38576 7.78704 7.44183 8.62437 4.52663 9.89447C4.05324 10.0827 3.80527 10.2669 3.78269 10.447C3.74454 10.7513 4.12565 10.8711 4.64461 11.0343C4.7152 11.0565 4.78835 11.0795 4.86333 11.1039C5.37391 11.2698 6.06074 11.464 6.41779 11.4717C6.74167 11.4787 7.10316 11.3452 7.50225 11.0712C10.226 9.23254 11.632 8.30322 11.7203 8.28318C11.7826 8.26905 11.8689 8.25128 11.9274 8.30325C11.9858 8.35522 11.9801 8.45364 11.9739 8.48005C11.9361 8.64099 10.4402 10.0318 9.66599 10.7515C9.42464 10.9759 9.25344 11.1351 9.21845 11.1714C9.14005 11.2528 9.06015 11.3298 8.98337 11.4039C8.50902 11.8611 8.15331 12.2041 9.00306 12.764C9.41142 13.0331 9.73818 13.2556 10.0642 13.4777C10.4202 13.7201 10.7753 13.9619 11.2347 14.2631C11.3518 14.3398 11.4636 14.4195 11.5725 14.4971C11.9868 14.7925 12.359 15.0579 12.8189 15.0156C13.0861 14.991 13.3621 14.7397 13.5023 13.9903C13.8336 12.2193 14.4847 8.38209 14.6352 6.80086C14.6484 6.66232 14.6318 6.48502 14.6185 6.40719C14.6052 6.32936 14.5774 6.21847 14.4762 6.13638C14.3564 6.03916 14.1714 6.01866 14.0887 6.02012C13.7126 6.02675 13.1355 6.2274 10.3584 7.38249Z" fill="#C1C1C1"/>
</svg>
